# xmcd
#
# Track frame offsets:
#	150
#	17603
#	31372
#	51538
#	69545
#	86724
#	103999
#	119525
#	138036
#	156312
#	173765
#	187534
#	207700
#	225707
#	242886
#	260161
#	275687
#	294198
#
# Disc length: 4166 seconds
#
# Revision: 2
# Processed by: cddbd v1.5.2PL0 Copyright (c) Steve Scherf et al.
# Submitted via: audiograbber 1.83.01
#
DISCID=0d104412
DTITLE=Various Artist - phn1001
DYEAR=1900
DGENRE=
TTITLE0=Shelton, Blake and Trace Atkins - Hillbilly Bone
TTITLE1=Houser, Randy - Whistlin' Dixie
TTITLE2=Toby Keith - Cryin' For Me (Wayman's Song)
TTITLE3=Matt Kennon - Call, the
TTITLE4=Rodney Atkins - Chasin' Girls
TTITLE5=Riley Williams - Country Livin'
TTITLE6=Houston Country - I Can't Make it Rain
TTITLE7=Trent Tomlinson - Angels Like Her
TTITLE8=Jack Ingram and Patty Griffin - Seeing Stars
TTITLE9=Blake Shelton vocal - vocal - Hillbilly Bone
TTITLE10=Randy Houser vocal - vocal-Whistlin' Dixie
TTITLE11=Toby Keith vocal - vocal-Cryin' For Me
TTITLE12=Matt kennon vocal - vocal-The Call
TTITLE13=Rodney Atkins vocal - vocal-Chasin' Girls
TTITLE14=Williams Riley vocal - vocal-Country Livin'
TTITLE15=Houston County vocal - vocal- I Can't Make It Rain
TTITLE16=Trent Tomlinson vocal - vocal - Angels Like Her
TTITLE17=Jack Ingram vocal - vocal - Seeing Stars
EXTD=
EXTT0=
EXTT1=
EXTT2=
EXTT3=
EXTT4=
EXTT5=
EXTT6=
EXTT7=
EXTT8=
EXTT9=
EXTT10=
EXTT11=
EXTT12=
EXTT13=
EXTT14=
EXTT15=
EXTT16=
EXTT17=
PLAYORDER=
